<svg xmlns="http://www.w3.org/2000/svg" viewBox="0 0 64 64">
  <!-- Tama the cat, first pass: a round green head with ears and whiskers. -->
  <polygon points="14,26 18,6 32,18" fill="#58CC02"/>
  <polygon points="50,26 46,6 32,18" fill="#58CC02"/>
  <polygon points="17,22 19,11 27,18" fill="#89E219"/>
  <polygon points="47,22 45,11 37,18" fill="#89E219"/>
  <circle cx="32" cy="36" r="22" fill="#58CC02"/>
  <ellipse cx="32" cy="42" rx="13" ry="10" fill="#FFFFFF"/>
  <circle cx="23" cy="32" r="4.5" fill="#FFFFFF"/>
  <circle cx="41" cy="32" r="4.5" fill="#FFFFFF"/>
  <circle cx="24" cy="33" r="2.4" fill="#4B4B4B"/>
  <circle cx="40" cy="33" r="2.4" fill="#4B4B4B"/>
  <polygon points="32,39 29,42 35,42" fill="#FF9600"/>
  <path d="M32 42 v3 M32 45 c0 3 -4 4 -6 3 M32 45 c0 3 4 4 6 3" stroke="#4B4B4B" stroke-width="1.6" fill="none" stroke-linecap="round"/>
  <path d="M10 38 h8 M10 44 h8 M46 38 h8 M46 44 h8" stroke="#4B4B4B" stroke-width="1.6" stroke-linecap="round"/>
</svg>
